<mxfile host="app.diagrams.net" modified="2020-10-12T14:39:16.180Z" agent="5.0 (Macintosh; Intel Mac OS X 10_14_6) AppleWebKit/537.36 (KHTML, like Gecko) Chrome/85.0.4183.121 Safari/537.36" etag="2VUhVVHLjCqEcAChn0Yp" version="13.7.9" type="github">
  <diagram id="V1Vt3t-gvWR1uWZImgzx" name="Page-1">
    <mxGraphModel dx="1387" dy="724" grid="1" gridSize="10" guides="1" tooltips="1" connect="1" arrows="1" fold="1" page="1" pageScale="1" pageWidth="850" pageHeight="1100" math="0" shadow="0">
      <root>
        <mxCell id="0" />
        <mxCell id="1" parent="0" />
        <mxCell id="1BtDdk1bDg7Nho7uQYB1-234" value="AWS Cloud" style="points=[[0,0],[0.25,0],[0.5,0],[0.75,0],[1,0],[1,0.25],[1,0.5],[1,0.75],[1,1],[0.75,1],[0.5,1],[0.25,1],[0,1],[0,0.75],[0,0.5],[0,0.25]];outlineConnect=0;html=1;whiteSpace=wrap;fontSize=12;fontStyle=0;shape=mxgraph.aws4.group;grIcon=mxgraph.aws4.group_aws_cloud_alt;verticalAlign=top;align=left;spacingLeft=30;dashed=0;" parent="1" vertex="1">
          <mxGeometry x="10" y="10" width="1150" height="580" as="geometry" />
        </mxCell>
        <mxCell id="1BtDdk1bDg7Nho7uQYB1-235" value="AWS Account" style="strokeColor=#9673a6;dashed=1;verticalAlign=top;fontStyle=0;align=left;fillColor=#E6E6E6;spacingLeft=25;spacing=0;" parent="1" vertex="1">
          <mxGeometry x="170" y="40" width="630" height="530" as="geometry" />
        </mxCell>
        <mxCell id="nCu4ia7cNSywYEdHrDN9-3" value="Region" style="points=[[0,0],[0.25,0],[0.5,0],[0.75,0],[1,0],[1,0.25],[1,0.5],[1,0.75],[1,1],[0.75,1],[0.5,1],[0.25,1],[0,1],[0,0.75],[0,0.5],[0,0.25]];outlineConnect=0;gradientColor=none;html=1;whiteSpace=wrap;fontSize=12;fontStyle=0;shape=mxgraph.aws4.group;grIcon=mxgraph.aws4.group_region;strokeColor=#147EBA;fillColor=none;verticalAlign=top;align=left;spacingLeft=30;fontColor=#147EBA;dashed=1;" vertex="1" parent="1">
          <mxGeometry x="190" y="70" width="580" height="480" as="geometry" />
        </mxCell>
        <mxCell id="1BtDdk1bDg7Nho7uQYB1-239" value="Amazon MSK VPC" style="points=[[0,0],[0.25,0],[0.5,0],[0.75,0],[1,0],[1,0.25],[1,0.5],[1,0.75],[1,1],[0.75,1],[0.5,1],[0.25,1],[0,1],[0,0.75],[0,0.5],[0,0.25]];outlineConnect=0;gradientColor=none;html=1;whiteSpace=wrap;fontSize=12;fontStyle=0;shape=mxgraph.aws4.group;grIcon=mxgraph.aws4.group_vpc;strokeColor=#248814;fillColor=none;verticalAlign=top;align=left;spacingLeft=30;fontColor=#AAB7B8;dashed=0;" parent="1" vertex="1">
          <mxGeometry x="220" y="90" width="530" height="380" as="geometry" />
        </mxCell>
        <mxCell id="nCu4ia7cNSywYEdHrDN9-9" value="AZ1" style="fillColor=none;strokeColor=#147EBA;dashed=1;verticalAlign=bottom;fontStyle=0;fontColor=#147EBA;align=left;" vertex="1" parent="1">
          <mxGeometry x="485" y="160" width="101" height="375" as="geometry" />
        </mxCell>
        <mxCell id="nCu4ia7cNSywYEdHrDN9-5" value="AZ1" style="fillColor=none;strokeColor=#147EBA;dashed=1;verticalAlign=bottom;fontStyle=0;fontColor=#147EBA;align=left;" vertex="1" parent="1">
          <mxGeometry x="375" y="160" width="101" height="375" as="geometry" />
        </mxCell>
        <mxCell id="nCu4ia7cNSywYEdHrDN9-4" value="AZ1" style="fillColor=none;strokeColor=#147EBA;dashed=1;verticalAlign=bottom;fontStyle=0;fontColor=#147EBA;align=left;" vertex="1" parent="1">
          <mxGeometry x="264" y="160" width="101" height="375" as="geometry" />
        </mxCell>
        <mxCell id="nCu4ia7cNSywYEdHrDN9-13" value="Kafka Cluster" style="fillColor=none;verticalAlign=top;fontStyle=0;fontColor=#5A6C86;align=left;spacingLeft=20;strokeColor=#FF6666;dashed=1;" vertex="1" parent="1">
          <mxGeometry x="230" y="120" width="390" height="320" as="geometry" />
        </mxCell>
        <mxCell id="1BtDdk1bDg7Nho7uQYB1-238" value="Customer Account" style="fillColor=#e1d5e7;strokeColor=#9673a6;dashed=1;verticalAlign=top;fontStyle=0;align=left;spacingLeft=25;spacing=0;" parent="1" vertex="1">
          <mxGeometry x="860" y="40" width="280" height="530" as="geometry" />
        </mxCell>
        <mxCell id="1BtDdk1bDg7Nho7uQYB1-243" value="Customer VPC" style="points=[[0,0],[0.25,0],[0.5,0],[0.75,0],[1,0],[1,0.25],[1,0.5],[1,0.75],[1,1],[0.75,1],[0.5,1],[0.25,1],[0,1],[0,0.75],[0,0.5],[0,0.25]];outlineConnect=0;gradientColor=none;html=1;whiteSpace=wrap;fontSize=12;fontStyle=0;shape=mxgraph.aws4.group;grIcon=mxgraph.aws4.group_vpc;strokeColor=#248814;fillColor=none;verticalAlign=top;align=left;spacingLeft=30;fontColor=#AAB7B8;dashed=0;" parent="1" vertex="1">
          <mxGeometry x="875" y="106" width="240" height="454" as="geometry" />
        </mxCell>
        <mxCell id="1BtDdk1bDg7Nho7uQYB1-244" value="AZ1" style="fillColor=none;strokeColor=#147EBA;dashed=1;verticalAlign=top;fontStyle=0;fontColor=#147EBA;align=right;horizontal=0;spacing=0;spacingRight=4;" parent="1" vertex="1">
          <mxGeometry x="902.5" y="131" width="220" height="129" as="geometry" />
        </mxCell>
        <mxCell id="1BtDdk1bDg7Nho7uQYB1-245" value="AZ2" style="fillColor=none;strokeColor=#147EBA;dashed=1;verticalAlign=top;fontStyle=0;fontColor=#147EBA;align=right;horizontal=0;spacing=0;spacingRight=4;" parent="1" vertex="1">
          <mxGeometry x="904.5" y="283" width="220" height="127" as="geometry" />
        </mxCell>
        <mxCell id="1BtDdk1bDg7Nho7uQYB1-246" value="AZ3" style="fillColor=none;strokeColor=#147EBA;dashed=1;verticalAlign=top;fontStyle=0;fontColor=#147EBA;align=right;horizontal=0;spacing=0;spacingRight=4;" parent="1" vertex="1">
          <mxGeometry x="902" y="427.5" width="220" height="122.5" as="geometry" />
        </mxCell>
        <mxCell id="1BtDdk1bDg7Nho7uQYB1-247" value="Subnet 1" style="points=[[0,0],[0.25,0],[0.5,0],[0.75,0],[1,0],[1,0.25],[1,0.5],[1,0.75],[1,1],[0.75,1],[0.5,1],[0.25,1],[0,1],[0,0.75],[0,0.5],[0,0.25]];outlineConnect=0;gradientColor=none;html=1;whiteSpace=wrap;fontSize=12;fontStyle=0;shape=mxgraph.aws4.group;grIcon=mxgraph.aws4.group_security_group;grStroke=0;strokeColor=#147EBA;fillColor=#E6F2F8;verticalAlign=top;align=left;spacingLeft=30;fontColor=#147EBA;dashed=0;" parent="1" vertex="1">
          <mxGeometry x="269" y="165" width="90" height="245" as="geometry" />
        </mxCell>
        <mxCell id="1BtDdk1bDg7Nho7uQYB1-250" value="Subnet A" style="points=[[0,0],[0.25,0],[0.5,0],[0.75,0],[1,0],[1,0.25],[1,0.5],[1,0.75],[1,1],[0.75,1],[0.5,1],[0.25,1],[0,1],[0,0.75],[0,0.5],[0,0.25]];outlineConnect=0;gradientColor=none;html=1;whiteSpace=wrap;fontSize=12;fontStyle=0;shape=mxgraph.aws4.group;grIcon=mxgraph.aws4.group_security_group;grStroke=0;strokeColor=#147EBA;fillColor=#E6F2F8;verticalAlign=top;align=left;spacingLeft=25;fontColor=#147EBA;dashed=0;" parent="1" vertex="1">
          <mxGeometry x="922.5" y="141" width="180" height="109" as="geometry" />
        </mxCell>
        <mxCell id="1BtDdk1bDg7Nho7uQYB1-251" value="Subnet B" style="points=[[0,0],[0.25,0],[0.5,0],[0.75,0],[1,0],[1,0.25],[1,0.5],[1,0.75],[1,1],[0.75,1],[0.5,1],[0.25,1],[0,1],[0,0.75],[0,0.5],[0,0.25]];outlineConnect=0;gradientColor=none;html=1;whiteSpace=wrap;fontSize=12;fontStyle=0;shape=mxgraph.aws4.group;grIcon=mxgraph.aws4.group_security_group;grStroke=0;strokeColor=#147EBA;fillColor=#E6F2F8;verticalAlign=top;align=left;spacingLeft=25;fontColor=#147EBA;dashed=0;" parent="1" vertex="1">
          <mxGeometry x="924.5" y="293.5" width="180" height="106.5" as="geometry" />
        </mxCell>
        <mxCell id="1BtDdk1bDg7Nho7uQYB1-252" value="Subnet C" style="points=[[0,0],[0.25,0],[0.5,0],[0.75,0],[1,0],[1,0.25],[1,0.5],[1,0.75],[1,1],[0.75,1],[0.5,1],[0.25,1],[0,1],[0,0.75],[0,0.5],[0,0.25]];outlineConnect=0;gradientColor=none;html=1;whiteSpace=wrap;fontSize=12;fontStyle=0;shape=mxgraph.aws4.group;grIcon=mxgraph.aws4.group_security_group;grStroke=0;strokeColor=#147EBA;fillColor=#E6F2F8;verticalAlign=top;align=left;spacingLeft=25;fontColor=#147EBA;dashed=0;" parent="1" vertex="1">
          <mxGeometry x="922" y="437.5" width="180" height="102.5" as="geometry" />
        </mxCell>
        <mxCell id="1BtDdk1bDg7Nho7uQYB1-255" value="Security group" style="fillColor=none;strokeColor=#DD3522;verticalAlign=top;fontStyle=0;fontColor=#DD3522;align=right;fontSize=10;spacing=0;spacingLeft=0;spacingRight=2;" parent="1" vertex="1">
          <mxGeometry x="279" y="195" width="70" height="205" as="geometry" />
        </mxCell>
        <mxCell id="1BtDdk1bDg7Nho7uQYB1-288" value="" style="outlineConnect=0;fontColor=#232F3E;gradientColor=#945DF2;gradientDirection=north;fillColor=#5A30B5;strokeColor=#ffffff;dashed=0;verticalLabelPosition=bottom;verticalAlign=top;align=left;html=1;fontSize=12;fontStyle=0;aspect=fixed;shape=mxgraph.aws4.resourceIcon;resIcon=mxgraph.aws4.managed_streaming_for_kafka;" parent="1" vertex="1">
          <mxGeometry x="229.99913043478261" y="120" width="18.260869565217394" height="18.260869565217394" as="geometry" />
        </mxCell>
        <mxCell id="1BtDdk1bDg7Nho7uQYB1-337" value="" style="outlineConnect=0;fontColor=#232F3E;gradientColor=none;fillColor=#C7131F;strokeColor=none;dashed=0;verticalLabelPosition=bottom;verticalAlign=top;align=center;html=1;fontSize=12;fontStyle=0;aspect=fixed;pointerEvents=1;shape=mxgraph.aws4.organizations_account;" parent="1" vertex="1">
          <mxGeometry x="170.59" y="40" width="28.46" height="30" as="geometry" />
        </mxCell>
        <mxCell id="1BtDdk1bDg7Nho7uQYB1-338" value="" style="outlineConnect=0;fontColor=#232F3E;gradientColor=none;fillColor=#C7131F;strokeColor=none;dashed=0;verticalLabelPosition=bottom;verticalAlign=top;align=center;html=1;fontSize=12;fontStyle=0;aspect=fixed;pointerEvents=1;shape=mxgraph.aws4.organizations_account;" parent="1" vertex="1">
          <mxGeometry x="860" y="40" width="28.46" height="30" as="geometry" />
        </mxCell>
        <mxCell id="nCu4ia7cNSywYEdHrDN9-1" value="" style="outlineConnect=0;fontColor=#232F3E;gradientColor=#F78E04;gradientDirection=north;fillColor=#D05C17;strokeColor=#ffffff;dashed=0;verticalLabelPosition=bottom;verticalAlign=top;align=center;html=1;fontSize=12;fontStyle=0;aspect=fixed;shape=mxgraph.aws4.resourceIcon;resIcon=mxgraph.aws4.ec2;" vertex="1" parent="1">
          <mxGeometry x="289" y="218.5" width="28" height="28" as="geometry" />
        </mxCell>
        <mxCell id="nCu4ia7cNSywYEdHrDN9-6" value="Subnet 2" style="points=[[0,0],[0.25,0],[0.5,0],[0.75,0],[1,0],[1,0.25],[1,0.5],[1,0.75],[1,1],[0.75,1],[0.5,1],[0.25,1],[0,1],[0,0.75],[0,0.5],[0,0.25]];outlineConnect=0;gradientColor=none;html=1;whiteSpace=wrap;fontSize=12;fontStyle=0;shape=mxgraph.aws4.group;grIcon=mxgraph.aws4.group_security_group;grStroke=0;strokeColor=#147EBA;fillColor=#E6F2F8;verticalAlign=top;align=left;spacingLeft=30;fontColor=#147EBA;dashed=0;" vertex="1" parent="1">
          <mxGeometry x="380" y="165" width="90" height="245" as="geometry" />
        </mxCell>
        <mxCell id="nCu4ia7cNSywYEdHrDN9-7" value="Security group" style="fillColor=none;strokeColor=#DD3522;verticalAlign=top;fontStyle=0;fontColor=#DD3522;align=right;fontSize=10;spacing=0;spacingLeft=0;spacingRight=2;" vertex="1" parent="1">
          <mxGeometry x="390" y="195" width="70" height="205" as="geometry" />
        </mxCell>
        <mxCell id="nCu4ia7cNSywYEdHrDN9-8" value="" style="outlineConnect=0;fontColor=#232F3E;gradientColor=#F78E04;gradientDirection=north;fillColor=#D05C17;strokeColor=#ffffff;dashed=0;verticalLabelPosition=bottom;verticalAlign=top;align=center;html=1;fontSize=12;fontStyle=0;aspect=fixed;shape=mxgraph.aws4.resourceIcon;resIcon=mxgraph.aws4.ec2;" vertex="1" parent="1">
          <mxGeometry x="400" y="218.5" width="28" height="28" as="geometry" />
        </mxCell>
        <mxCell id="nCu4ia7cNSywYEdHrDN9-10" value="Subnet 3" style="points=[[0,0],[0.25,0],[0.5,0],[0.75,0],[1,0],[1,0.25],[1,0.5],[1,0.75],[1,1],[0.75,1],[0.5,1],[0.25,1],[0,1],[0,0.75],[0,0.5],[0,0.25]];outlineConnect=0;gradientColor=none;html=1;whiteSpace=wrap;fontSize=12;fontStyle=0;shape=mxgraph.aws4.group;grIcon=mxgraph.aws4.group_security_group;grStroke=0;strokeColor=#147EBA;fillColor=#E6F2F8;verticalAlign=top;align=left;spacingLeft=30;fontColor=#147EBA;dashed=0;" vertex="1" parent="1">
          <mxGeometry x="490" y="165" width="90" height="245" as="geometry" />
        </mxCell>
        <mxCell id="nCu4ia7cNSywYEdHrDN9-11" value="Security group" style="fillColor=none;strokeColor=#DD3522;verticalAlign=top;fontStyle=0;fontColor=#DD3522;align=right;fontSize=10;spacing=0;spacingLeft=0;spacingRight=2;" vertex="1" parent="1">
          <mxGeometry x="500" y="195" width="70" height="205" as="geometry" />
        </mxCell>
        <mxCell id="nCu4ia7cNSywYEdHrDN9-12" value="" style="outlineConnect=0;fontColor=#232F3E;gradientColor=#F78E04;gradientDirection=north;fillColor=#D05C17;strokeColor=#ffffff;dashed=0;verticalLabelPosition=bottom;verticalAlign=top;align=center;html=1;fontSize=12;fontStyle=0;aspect=fixed;shape=mxgraph.aws4.resourceIcon;resIcon=mxgraph.aws4.ec2;" vertex="1" parent="1">
          <mxGeometry x="510" y="218.5" width="28" height="28" as="geometry" />
        </mxCell>
        <mxCell id="nCu4ia7cNSywYEdHrDN9-15" value="Zookeeper Nodes" style="fillColor=none;verticalAlign=bottom;fontStyle=0;fontColor=#5A6C86;align=left;strokeColor=#FFB570;spacingTop=0;spacingBottom=-18;dashed=1;" vertex="1" parent="1">
          <mxGeometry x="245" y="298.5" width="355" height="121.5" as="geometry" />
        </mxCell>
        <mxCell id="nCu4ia7cNSywYEdHrDN9-14" value="Broker Nodes" style="fillColor=none;verticalAlign=bottom;fontStyle=0;fontColor=#5A6C86;align=left;strokeColor=#FFB570;spacingTop=0;spacingBottom=-18;dashed=1;" vertex="1" parent="1">
          <mxGeometry x="245" y="141" width="355" height="139" as="geometry" />
        </mxCell>
      </root>
    </mxGraphModel>
  </diagram>
</mxfile>
